<svg xmlns="http://www.w3.org/2000/svg" xmlns:xlink="http://www.w3.org/1999/xlink" version="1.1" width="1000" height="1000" viewBox="0 0 1000 1000" xml:space="preserve">
<desc>Created with Fabric.js 3.5.0</desc>
<defs>
</defs>
<rect x="0" y="0" width="100%" height="100%" fill="#ffffff"/>
<g transform="matrix(23.7347 0 0 23.7347 499.9988 521.0217)" id="712887">
<g style="" vector-effect="non-scaling-stroke">
		<g transform="matrix(1 0 0 1 0.1964 -6.2542)" id="java">
<path style="stroke: none; stroke-width: 1; stroke-dasharray: none; stroke-linecap: butt; stroke-dashoffset: 0; stroke-linejoin: miter; stroke-miterlimit: 4; is-custom-font: none; font-file-url: none; fill: rgb(0,0,0); fill-rule: nonzero; opacity: 1;" transform=" translate(-24.1964, -17.7458)" d="M 20.44 24.3 s -1 0.6 0.73 0.81 a 15.68 15.68 0 0 0 5.59 -0.24 a 9.4 9.4 0 0 0 1.48 0.72 c -5.28 2.27 -11.95 -0.13 -7.8 -1.29 z m -0.65 -2.95 s -1.15 0.86 0.61 1 a 21.72 21.72 0 0 0 7.21 -0.35 a 3.17 3.17 0 0 0 1.11 0.68 c -6.38 1.87 -13.49 0.15 -8.93 -1.37 z m 5.44 -5.01 a 2 2 0 0 1 -0.34 2.85 s 3.3 -1.71 1.79 -3.84 s -2.51 -3 3.37 -6.39 c 0 0 -9.23 2.3 -4.82 7.38 z" stroke-linecap="round"/>
</g>
		<g transform="matrix(1 0 0 1 -0.032 -7.7311)" id="java">
<path style="stroke: none; stroke-width: 1; stroke-dasharray: none; stroke-linecap: butt; stroke-dashoffset: 0; stroke-linejoin: miter; stroke-miterlimit: 4; is-custom-font: none; font-file-url: none; fill: rgb(0,0,0); fill-rule: nonzero; opacity: 1;" transform=" translate(-23.968, -16.2689)" d="M 32.21 26.49 s 0.77 0.63 -0.84 1.11 c -3 0.93 -12.68 1.2 -15.36 0 c -1 -0.42 0.85 -1 1.41 -1.12 a 3.81 3.81 0 0 1 0.93 -0.11 c -1.07 -0.75 -6.91 1.48 -3 2.12 c 10.76 1.75 19.62 -0.78 16.82 -2 z m -11.28 -8.2 S 16 19.46 19.2 19.88 a 36.49 36.49 0 0 0 6.48 -0.07 c 2 -0.17 4.07 -0.54 4.07 -0.54 a 9.06 9.06 0 0 0 -1.24 0.66 c -5 1.31 -14.59 0.7 -11.82 -0.63 a 9.19 9.19 0 0 1 4.24 -1 z m 8.8 4.92 c 5.06 -2.63 2.72 -5.16 1.08 -4.82 a 4 4 0 0 0 -0.57 0.16 a 0.86 0.86 0 0 1 0.43 -0.34 c 3.23 -1.13 5.71 3.35 -1 5.13 a 0.64 0.64 0 0 0 0.1 -0.13 z M 26.68 3.45 s 2.8 2.8 -2.66 7.11 C 19.64 14 23 16 24 18.24 c -2.56 -2.3 -4.43 -4.33 -3.18 -6.22 c 1.85 -2.77 7 -4.12 5.84 -8.57 z" stroke-linecap="round"/>
</g>
		<g transform="matrix(1 0 0 1 0.005 11.315)" id="java">
<path style="stroke: none; stroke-width: 1; stroke-dasharray: none; stroke-linecap: butt; stroke-dashoffset: 0; stroke-linejoin: miter; stroke-miterlimit: 4; is-custom-font: none; font-file-url: none; fill: rgb(0,0,0); fill-rule: nonzero; opacity: 1;" transform=" translate(-24.005, -35.315)" d="M 21.43 30.33 c 4.86 0.31 12.32 -0.17 12.49 -2.47 c 0 0 -0.34 0.87 -4 1.56 a 39.93 39.93 0 0 1 -12.29 0.19 s 0.62 0.52 3.81 0.72 z m 12.27 4.12 h -0.15 v -0.08 H 34 v 0.08 h -0.2 v 0.42 h -0.1 v -0.42 z m 0.79 0 l -0.14 0.4 h -0.07 l -0.15 -0.4 v 0.4 H 34 v -0.5 h 0.15 l 0.13 0.35 l 0.14 -0.35 h 0.14 v 0.5 h -0.1 v -0.4 z m -13.85 4.66 a 2.21 2.21 0 0 1 -1.38 0.62 a 0.88 0.88 0 0 1 -1 -1 c 0 -0.64 0.36 -1.11 1.8 -1.11 h 0.54 v 1.46 z m 1.26 1.43 v -4.42 c 0 -1.12 -0.64 -1.87 -2.19 -1.87 a 5.74 5.74 0 0 0 -2.35 0.51 l 0.19 0.78 a 5.34 5.34 0 0 1 1.81 -0.36 c 0.89 0 1.28 0.36 1.28 1.11 v 0.55 h -0.45 C 18 36.84 17 37.69 17 39 c 0 1.09 0.65 1.71 1.86 1.71 a 2.82 2.82 0 0 0 1.91 -0.79 l 0.1 0.67 z m 4.22 0 h -1.58 l -1.9 -6.18 H 24 l 1.18 3.8 l 0.26 1.14 a 23.49 23.49 0 0 0 1.23 -4.94 H 28 a 25.26 25.26 0 0 1 -1.91 6.18 z m 6.05 -1.43 a 2.21 2.21 0 0 1 -1.38 0.62 a 0.87 0.87 0 0 1 -0.95 -1 c 0 -0.64 0.36 -1.11 1.79 -1.11 h 0.54 v 1.46 z m 1.26 1.43 v -4.42 c 0 -1.12 -0.64 -1.87 -2.19 -1.87 a 5.74 5.74 0 0 0 -2.35 0.51 l 0.19 0.78 a 5.34 5.34 0 0 1 1.81 -0.36 c 0.89 0 1.28 0.36 1.28 1.11 v 0.55 h -0.45 c -2.17 0 -3.15 0.85 -3.15 2.11 c 0 1.09 0.65 1.71 1.86 1.71 a 2.82 2.82 0 0 0 1.91 -0.79 l 0.1 0.67 z m -17.78 1.05 a 3.38 3.38 0 0 1 -1.58 1.18 l -0.62 -0.77 a 2.64 2.64 0 0 0 1.09 -1 a 4 4 0 0 0 0.24 -1.79 v -7 h 1.34 v 6.95 a 4 4 0 0 1 -0.47 2.47 z" stroke-linecap="round"/>
</g>
</g>
</g>
</svg>